{"asset":{"version":"2.0","generator":"Blockbench 4.9.3 glTF exporter"},"scenes":[{"nodes":[14],"name":"blockbench_export"}],"scene":0,"nodes":[{"rotation":[-0.6427876096865393,0,0,0.766044443118978],"translation":[-0.8906250000000009,3.380609122634726,-1.444931942922154],"name":"Buttons","mesh":0},{"rotation":[8.017065947537043e-17,0.766044443118978,-0.6427876096865394,-2.8306120432600024e-19],"translation":[-1.46875,3.875,-1.062499999999999],"name":"Monitor_Frame","mesh":1},{"rotation":[0.08715574274765817,0,0,0.9961946980917455],"translation":[-1.3750000000000002,4.125,-1.4374999999999998],"name":"Monitor_Display","mesh":2},{"translation":[0,-3,0],"name":"Main_Monitor","children":[0,1,2]},{"rotation":[-0.13052619222005157,0,0,0.9914448613738104],"translation":[-1.1387608856765412,0.8803339362047113,-0.2155032285224121],"name":"Keyboard","mesh":3},{"translation":[-0.140625,-0.8751842574937894,-1.875000000000001],"name":"Keyboard","children":[4]},{"name":"Cable_1","mesh":4},{"name":"Cable_2","mesh":5},{"name":"Power_Box","mesh":6},{"rotation":[0.08715574274765817,0,0,0.9961946980917455],"translation":[0.953125,3.0625,1.1875],"name":"Support_L","mesh":7},{"rotation":[0.08715574274765817,0,0,0.9961946980917455],"translation":[0.953125,3.0625,1.1875],"name":"Support_R","mesh":8},{"translation":[1.5,-0.75,0],"name":"Main_Body","mesh":9},{"translation":[-3.015625,-2.875,-1.8125],"name":"Main_Body","children":[6,7,8,9,10,11]},{"rotation":[0,-6.123233995736769e-17,0,1],"translation":[1.5,3.625,1.8125],"name":"Root","children":[3,5,12]},{"children":[13]}],"bufferViews":[{"buffer":0,"byteOffset":0,"byteLength":864,"target":34962,"byteStride":12},{"buffer":0,"byteOffset":864,"byteLength":864,"target":34962,"byteStride":12},{"buffer":0,"byteOffset":1728,"byteLength":576,"target":34962,"byteStride":8},{"buffer":0,"byteOffset":2304,"byteLength":216,"target":34963},{"buffer":0,"byteOffset":2520,"byteLength":2832,"target":34962,"byteStride":12},{"buffer":0,"byteOffset":5352,"byteLength":2832,"target":34962,"byteStride":12},{"buffer":0,"byteOffset":8184,"byteLength":1888,"target":34962,"byteStride":8},{"buffer":0,"byteOffset":10072,"byteLength":708,"target":34963},{"buffer":0,"byteOffset":10780,"byteLength":288,"target":34962,"byteStride":12},{"buffer":0,"byteOffset":11068,"byteLength":288,"target":34962,"byteStride":12},{"buffer":0,"byteOffset":11356,"byteLength":192,"target":34962,"byteStride":8},{"buffer":0,"byteOffset":11548,"byteLength":72,"target":34963},{"buffer":0,"byteOffset":11620,"byteLength":3072,"target":34962,"byteStride":12},{"buffer":0,"byteOffset":14692,"byteLength":3072,"target":34962,"byteStride":12},{"buffer":0,"byteOffset":17764,"byteLength":2048,"target":34962,"byteStride":8},{"buffer":0,"byteOffset":19812,"byteLength":768,"target":34963},{"buffer":0,"byteOffset":20580,"byteLength":288,"target":34962,"byteStride":12},{"buffer":0,"byteOffset":20868,"byteLength":288,"target":34962,"byteStride":12},{"buffer":0,"byteOffset":21156,"byteLength":192,"target":34962,"byteStride":8},{"buffer":0,"byteOffset":21348,"byteLength":72,"target":34963},{"buffer":0,"byteOffset":21420,"byteLength":288,"target":34962,"byteStride":12},{"buffer":0,"byteOffset":21708,"byteLength":288,"target":34962,"byteStride":12},{"buffer":0,"byteOffset":21996,"byteLength":192,"target":34962,"byteStride":8},{"buffer":0,"byteOffset":22188,"byteLength":72,"target":34963},{"buffer":0,"byteOffset":22260,"byteLength":288,"target":34962,"byteStride":12},{"buffer":0,"byteOffset":22548,"byteLength":288,"target":34962,"byteStride":12},{"buffer":0,"byteOffset":22836,"byteLength":192,"target":34962,"byteStride":8},{"buffer":0,"byteOffset":23028,"byteLength":72,"target":34963},{"buffer":0,"byteOffset":23100,"byteLength":288,"target":34962,"byteStride":12},{"buffer":0,"byteOffset":23388,"byteLength":288,"target":34962,"byteStride":12},{"buffer":0,"byteOffset":23676,"byteLength":192,"target":34962,"byteStride":8},{"buffer":0,"byteOffset":23868,"byteLength":72,"target":34963},{"buffer":0,"byteOffset":23940,"byteLength":288,"target":34962,"byteStride":12},{"buffer":0,"byteOffset":24228,"byteLength":288,"target":34962,"byteStride":12},{"buffer":0,"byteOffset":24516,"byteLength":192,"target":34962,"byteStride":8},{"buffer":0,"byteOffset":24708,"byteLength":72,"target":34963},{"buffer":0,"byteOffset":24780,"byteLength":3600,"target":34962,"byteStride":12},{"buffer":0,"byteOffset":28380,"byteLength":3600,"target":34962,"byteStride":12},{"buffer":0,"byteOffset":31980,"byteLength":2400,"target":34962,"byteStride":8},{"buffer":0,"byteOffset":34380,"byteLength":900,"target":34963}],"buffers":[{"byteLength":35280,"uri":"data:application/octet-stream;base64,"}],"accessors":[{"bufferView":0,"componentType":5126,"count":72,"max":[0.5260416865348816,-0.15625,-0.015625],"min":[-0.2552083432674408,-0.28125,-0.109375],"type":"VEC3"},{"bufferView":1,"componentType":5126,"count":72,"max":[1,1,1],"min":[-1,-1,-1],"type":"VEC3"},{"bufferView":2,"componentType":5126,"count":72,"max":[0.53125,0.4765625],"min":[0.12890625,0.05859375],"type":"VEC2"},{"bufferView":3,"componentType":5123,"count":108,"max":[71],"min":[0],"type":"SCALAR"},{"bufferView":4,"componentType":5126,"count":236,"max":[1.21875,0.158203125,1.00849187374115],"min":[-1.21875,-0.498046875,-1.17900812625885],"type":"VEC3"},{"bufferView":5,"componentType":5126,"count":236,"max":[1,1,1],"min":[-1,-1,-1],"type":"VEC3"},{"bufferView":6,"componentType":5126,"count":236,"max":[0.6430121064186096,0.625],"min":[0.0019530572462826967,0],"type":"VEC2"},{"bufferView":7,"componentType":5123,"count":354,"max":[235],"min":[0],"type":"SCALAR"},{"bufferView":8,"componentType":5126,"count":24,"max":[1,0.875,0.5],"min":[-1.25,-0.8125,0.375],"type":"VEC3"},{"bufferView":9,"componentType":5126,"count":24,"max":[1,1,1],"min":[-1,-1,-1],"type":"VEC3"},{"bufferView":10,"componentType":5126,"count":24,"max":[0.5703125,0.4765625],"min":[0,0],"type":"VEC2"},{"bufferView":11,"componentType":5123,"count":36,"max":[23],"min":[0],"type":"SCALAR"},{"bufferView":12,"componentType":5126,"count":256,"max":[1.1543859243392944,-0.3176496922969818,0.7155032157897949],"min":[-1.5331140756607056,-0.6301496624946594,-0.7219967842102051],"type":"VEC3"},{"bufferView":13,"componentType":5126,"count":256,"max":[1,1,1],"min":[-1,-1,-1],"type":"VEC3"},{"bufferView":14,"componentType":5126,"count":256,"max":[0.6640625,0.56640625],"min":[0,0],"type":"VEC2"},{"bufferView":15,"componentType":5123,"count":384,"max":[255],"min":[0],"type":"SCALAR"},{"bufferView":16,"componentType":5126,"count":24,"max":[2,1.625,-0.1875],"min":[1.8125,0.5,-0.4375],"type":"VEC3"},{"bufferView":17,"componentType":5126,"count":24,"max":[1,1,1],"min":[-1,-1,-1],"type":"VEC3"},{"bufferView":18,"componentType":5126,"count":24,"max":[0.50390625,0.61328125],"min":[0.01171875,0.21875],"type":"VEC2"},{"bufferView":19,"componentType":5123,"count":36,"max":[23],"min":[0],"type":"SCALAR"},{"bufferView":20,"componentType":5126,"count":24,"max":[1.75,1.625,-0.1875],"min":[1.625,0.5,-0.375],"type":"VEC3"},{"bufferView":21,"componentType":5126,"count":24,"max":[1,1,1],"min":[-1,-1,-1],"type":"VEC3"},{"bufferView":22,"componentType":5126,"count":24,"max":[0.20703125,0.625],"min":[0,0.09375],"type":"VEC2"},{"bufferView":23,"componentType":5123,"count":36,"max":[23],"min":[0],"type":"SCALAR"},{"bufferView":24,"componentType":5126,"count":24,"max":[1.5,1.5,-0.1875],"min":[1,0.875,-0.3125],"type":"VEC3"},{"bufferView":25,"componentType":5126,"count":24,"max":[1,1,1],"min":[-1,-1,-1],"type":"VEC3"},{"bufferView":26,"componentType":5126,"count":24,"max":[0.59765625,0.578125],"min":[0.09375,0.09765625],"type":"VEC2"},{"bufferView":27,"componentType":5123,"count":36,"max":[23],"min":[0],"type":"SCALAR"},{"bufferView":28,"componentType":5126,"count":24,"max":[0.09375,0.6875,0],"min":[-0.09375,-1.0625,-0.375],"type":"VEC3"},{"bufferView":29,"componentType":5126,"count":24,"max":[1,1,1],"min":[-1,-1,-1],"type":"VEC3"},{"bufferView":30,"componentType":5126,"count":24,"max":[0.42578125,0.609375],"min":[0.03125,0.05859375],"type":"VEC2"},{"bufferView":31,"componentType":5123,"count":36,"max":[23],"min":[0],"type":"SCALAR"},{"bufferView":32,"componentType":5126,"count":24,"max":[1.28125,0.6875,0],"min":[1.09375,-1.0625,-0.375],"type":"VEC3"},{"bufferView":33,"componentType":5126,"count":24,"max":[1,1,1],"min":[-1,-1,-1],"type":"VEC3"},{"bufferView":34,"componentType":5126,"count":24,"max":[0.51953125,0.6171875],"min":[0.1171875,0.44140625],"type":"VEC2"},{"bufferView":35,"componentType":5123,"count":36,"max":[23],"min":[0],"type":"SCALAR"},{"bufferView":36,"componentType":5126,"count":300,"max":[1.015625,3.25,1.1875],"min":[-0.984375,0.0010082279331982136,-0.6875],"type":"VEC3"},{"bufferView":37,"componentType":5126,"count":300,"max":[1,1,1],"min":[-1,-1,-1],"type":"VEC3"},{"bufferView":38,"componentType":5126,"count":300,"max":[0.59375,0.609375],"min":[0,0.0613398551940918],"type":"VEC2"},{"bufferView":39,"componentType":5123,"count":450,"max":[299],"min":[0],"type":"SCALAR"}],"materials":[{"pbrMetallicRoughness":{"metallicFactor":0,"roughnessFactor":1,"baseColorTexture":{"index":0}},"alphaMode":"MASK","alphaCutoff":0.05,"doubleSided":true},{"pbrMetallicRoughness":{"metallicFactor":0,"roughnessFactor":1,"baseColorTexture":{"index":1}},"alphaMode":"MASK","alphaCutoff":0.05,"doubleSided":true}],"textures":[{"sampler":0,"source":0},{"sampler":1,"source":1}],"samplers":[{"magFilter":9728,"minFilter":9728,"wrapS":33071,"wrapT":33071},{"magFilter":9728,"minFilter":9728,"wrapS":33071,"wrapT":33071}],"images":[{"mimeType":"image/png","uri":"data:image/png;base64,"},{"mimeType":"image/png","uri":"data:image/png;base64,"}],"meshes":[{"primitives":[{"mode":4,"attributes":{"POSITION":0,"NORMAL":1,"TEXCOORD_0":2},"indices":3,"material":0}]},{"primitives":[{"mode":4,"attributes":{"POSITION":4,"NORMAL":5,"TEXCOORD_0":6},"indices":7,"material":0}]},{"primitives":[{"mode":4,"attributes":{"POSITION":8,"NORMAL":9,"TEXCOORD_0":10},"indices":11,"material":1}]},{"primitives":[{"mode":4,"attributes":{"POSITION":12,"NORMAL":13,"TEXCOORD_0":14},"indices":15,"material":0}]},{"primitives":[{"mode":4,"attributes":{"POSITION":16,"NORMAL":17,"TEXCOORD_0":18},"indices":19,"material":0}]},{"primitives":[{"mode":4,"attributes":{"POSITION":20,"NORMAL":21,"TEXCOORD_0":22},"indices":23,"material":0}]},{"primitives":[{"mode":4,"attributes":{"POSITION":24,"NORMAL":25,"TEXCOORD_0":26},"indices":27,"material":0}]},{"primitives":[{"mode":4,"attributes":{"POSITION":28,"NORMAL":29,"TEXCOORD_0":30},"indices":31,"material":0}]},{"primitives":[{"mode":4,"attributes":{"POSITION":32,"NORMAL":33,"TEXCOORD_0":34},"indices":35,"material":0}]},{"primitives":[{"mode":4,"attributes":{"POSITION":36,"NORMAL":37,"TEXCOORD_0":38},"indices":39,"material":0}]}]}