{"asset":{"version":"2.0","generator":"Blockbench 4.9.3 glTF exporter"},"scenes":[{"nodes":[15],"name":"blockbench_export"}],"scene":0,"nodes":[{"translation":[0,0,-0.08333333333333337],"name":"Handle","mesh":0},{"translation":[1.4453125,0.34375,-0.22916666666666663],"name":"Handle","children":[0]},{"translation":[1.3203125,-3.09375,0.4375],"name":"Keypad","mesh":1},{"name":"Keypad","children":[2]},{"translation":[1.3203125,-3.09375,0.4375],"name":"Hinge2","mesh":2},{"translation":[1.3203125,-3.09375,0.4375],"name":"Hinge1","mesh":3},{"translation":[0.0015625000000000222,0.28749999999999964,0],"name":"Door","mesh":4},{"rotation":[-0.7071067811865475,0,0,0.7071067811865476],"translation":[0.0625,0,0],"name":"Paper","mesh":5},{"translation":[0.0625,0,0],"name":"Pin","mesh":6},{"translation":[-1.3203125,3.09375,-0.4375],"name":"Door","children":[1,3,4,5,6,7,8]},{"name":"Legs","mesh":7},{"name":"Shelf1","mesh":8},{"name":"Shelf2","mesh":9},{"name":"Main_Body","mesh":10},{"translation":[0.4375,0,0],"name":"Root","children":[9,10,11,12,13]},{"children":[14]}],"bufferViews":[{"buffer":0,"byteOffset":0,"byteLength":864,"target":34962,"byteStride":12},{"buffer":0,"byteOffset":864,"byteLength":864,"target":34962,"byteStride":12},{"buffer":0,"byteOffset":1728,"byteLength":576,"target":34962,"byteStride":8},{"buffer":0,"byteOffset":2304,"byteLength":216,"target":34963},{"buffer":0,"byteOffset":2520,"byteLength":816,"target":34962,"byteStride":12},{"buffer":0,"byteOffset":3336,"byteLength":816,"target":34962,"byteStride":12},{"buffer":0,"byteOffset":4152,"byteLength":544,"target":34962,"byteStride":8},{"buffer":0,"byteOffset":4696,"byteLength":204,"target":34963},{"buffer":0,"byteOffset":4900,"byteLength":288,"target":34962,"byteStride":12},{"buffer":0,"byteOffset":5188,"byteLength":288,"target":34962,"byteStride":12},{"buffer":0,"byteOffset":5476,"byteLength":192,"target":34962,"byteStride":8},{"buffer":0,"byteOffset":5668,"byteLength":72,"target":34963},{"buffer":0,"byteOffset":5740,"byteLength":288,"target":34962,"byteStride":12},{"buffer":0,"byteOffset":6028,"byteLength":288,"target":34962,"byteStride":12},{"buffer":0,"byteOffset":6316,"byteLength":192,"target":34962,"byteStride":8},{"buffer":0,"byteOffset":6508,"byteLength":72,"target":34963},{"buffer":0,"byteOffset":6580,"byteLength":1536,"target":34962,"byteStride":12},{"buffer":0,"byteOffset":8116,"byteLength":1536,"target":34962,"byteStride":12},{"buffer":0,"byteOffset":9652,"byteLength":1024,"target":34962,"byteStride":8},{"buffer":0,"byteOffset":10676,"byteLength":384,"target":34963},{"buffer":0,"byteOffset":11060,"byteLength":144,"target":34962,"byteStride":12},{"buffer":0,"byteOffset":11204,"byteLength":144,"target":34962,"byteStride":12},{"buffer":0,"byteOffset":11348,"byteLength":96,"target":34962,"byteStride":8},{"buffer":0,"byteOffset":11444,"byteLength":36,"target":34963},{"buffer":0,"byteOffset":11480,"byteLength":288,"target":34962,"byteStride":12},{"buffer":0,"byteOffset":11768,"byteLength":288,"target":34962,"byteStride":12},{"buffer":0,"byteOffset":12056,"byteLength":192,"target":34962,"byteStride":8},{"buffer":0,"byteOffset":12248,"byteLength":72,"target":34963},{"buffer":0,"byteOffset":12320,"byteLength":1152,"target":34962,"byteStride":12},{"buffer":0,"byteOffset":13472,"byteLength":1152,"target":34962,"byteStride":12},{"buffer":0,"byteOffset":14624,"byteLength":768,"target":34962,"byteStride":8},{"buffer":0,"byteOffset":15392,"byteLength":288,"target":34963},{"buffer":0,"byteOffset":15680,"byteLength":288,"target":34962,"byteStride":12},{"buffer":0,"byteOffset":15968,"byteLength":288,"target":34962,"byteStride":12},{"buffer":0,"byteOffset":16256,"byteLength":192,"target":34962,"byteStride":8},{"buffer":0,"byteOffset":16448,"byteLength":72,"target":34963},{"buffer":0,"byteOffset":16520,"byteLength":288,"target":34962,"byteStride":12},{"buffer":0,"byteOffset":16808,"byteLength":288,"target":34962,"byteStride":12},{"buffer":0,"byteOffset":17096,"byteLength":192,"target":34962,"byteStride":8},{"buffer":0,"byteOffset":17288,"byteLength":72,"target":34963},{"buffer":0,"byteOffset":17360,"byteLength":1824,"target":34962,"byteStride":12},{"buffer":0,"byteOffset":19184,"byteLength":1824,"target":34962,"byteStride":12},{"buffer":0,"byteOffset":21008,"byteLength":1216,"target":34962,"byteStride":8},{"buffer":0,"byteOffset":22224,"byteLength":456,"target":34963},{"buffer":0,"byteOffset":22680,"byteLength":12},{"buffer":0,"byteOffset":22692,"byteLength":48},{"buffer":0,"byteOffset":22740,"byteLength":8},{"buffer":0,"byteOffset":22748,"byteLength":32}],"buffers":[{"byteLength":22780,"uri":"data:application/octet-stream;base64,"}],"accessors":[{"bufferView":0,"componentType":5126,"count":72,"max":[0.125,0.125,0.3125],"min":[-0.4375,-0.125,-0.125],"type":"VEC3"},{"bufferView":1,"componentType":5126,"count":72,"max":[1,1,1],"min":[-1,-1,-1],"type":"VEC3"},{"bufferView":2,"componentType":5126,"count":72,"max":[0.65625,0.640625],"min":[0.15625,0.0234375],"type":"VEC2"},{"bufferView":3,"componentType":5123,"count":108,"max":[71],"min":[0],"type":"SCALAR"},{"bufferView":4,"componentType":5126,"count":68,"max":[0.25,4.125,-0.4375],"min":[-0.3125,3.75,-0.6875],"type":"VEC3"},{"bufferView":5,"componentType":5126,"count":68,"max":[1,1,1],"min":[-1,-1,-1],"type":"VEC3"},{"bufferView":6,"componentType":5126,"count":68,"max":[0.64453125,0.6328125],"min":[0.11328125,0.0234375],"type":"VEC2"},{"bufferView":7,"componentType":5123,"count":102,"max":[67],"min":[0],"type":"SCALAR"},{"bufferView":8,"componentType":5126,"count":24,"max":[-1.25,1.5625,-0.375],"min":[-1.375,1.0625,-0.5],"type":"VEC3"},{"bufferView":9,"componentType":5126,"count":24,"max":[1,1,1],"min":[-1,-1,-1],"type":"VEC3"},{"bufferView":10,"componentType":5126,"count":24,"max":[0.63671875,0.64453125],"min":[0.14453125,0.28125],"type":"VEC2"},{"bufferView":11,"componentType":5123,"count":36,"max":[23],"min":[0],"type":"SCALAR"},{"bufferView":12,"componentType":5126,"count":24,"max":[-1.25,5.125,-0.375],"min":[-1.375,4.625,-0.5],"type":"VEC3"},{"bufferView":13,"componentType":5126,"count":24,"max":[1,1,1],"min":[-1,-1,-1],"type":"VEC3"},{"bufferView":14,"componentType":5126,"count":24,"max":[0.63671875,0.64453125],"min":[0.09765625,0.2109375],"type":"VEC2"},{"bufferView":15,"componentType":5123,"count":36,"max":[23],"min":[0],"type":"SCALAR"},{"bufferView":16,"componentType":5126,"count":128,"max":[1.678125023841858,2.3531250953674316,0.0625],"min":[0.06875000149011612,-2.9281249046325684,-0.0625],"type":"VEC3"},{"bufferView":17,"componentType":5126,"count":128,"max":[1,1,1],"min":[-1,-1,-1],"type":"VEC3"},{"bufferView":18,"componentType":5126,"count":128,"max":[0.65966796875,0.87890625],"min":[0.09765625,0.0234375],"type":"VEC2"},{"bufferView":19,"componentType":5123,"count":192,"max":[127],"min":[0],"type":"SCALAR"},{"bufferView":20,"componentType":5126,"count":12,"max":[0.8125,0.109375,0],"min":[0.1875,0.0625,-1],"type":"VEC3"},{"bufferView":21,"componentType":5126,"count":12,"max":[0,0.9989685416221619,0.1351132094860077],"min":[0,0.9908301830291748,-0.09950371831655502],"type":"VEC3"},{"bufferView":22,"componentType":5126,"count":12,"max":[0.59375,0.5032484531402588],"min":[0.5546875,0.4404296875],"type":"VEC2"},{"bufferView":23,"componentType":5123,"count":18,"max":[11],"min":[0],"type":"SCALAR"},{"bufferView":24,"componentType":5126,"count":24,"max":[0.546875,0.046875,-0.03125],"min":[0.421875,-0.078125,-0.15625],"type":"VEC3"},{"bufferView":25,"componentType":5126,"count":24,"max":[1,1,1],"min":[-1,-1,-1],"type":"VEC3"},{"bufferView":26,"componentType":5126,"count":24,"max":[0.63671875,0.4140625],"min":[0.62890625,0.34765625],"type":"VEC2"},{"bufferView":27,"componentType":5123,"count":36,"max":[23],"min":[0],"type":"SCALAR"},{"bufferView":28,"componentType":5126,"count":96,"max":[0.5,0.3125,1.125],"min":[-1.375,0,-0.5],"type":"VEC3"},{"bufferView":29,"componentType":5126,"count":96,"max":[1,1,1],"min":[-1,-1,-1],"type":"VEC3"},{"bufferView":30,"componentType":5126,"count":96,"max":[0.625,0.62109375],"min":[0.15625,0.04296875],"type":"VEC2"},{"bufferView":31,"componentType":5123,"count":144,"max":[95],"min":[0],"type":"SCALAR"},{"bufferView":32,"componentType":5126,"count":24,"max":[0.375,4.4375,1],"min":[-1.25,4.3125,-0.375],"type":"VEC3"},{"bufferView":33,"componentType":5126,"count":24,"max":[1,1,1],"min":[-1,-1,-1],"type":"VEC3"},{"bufferView":34,"componentType":5126,"count":24,"max":[0.66015625,0.4375],"min":[0.015625,0.09765625],"type":"VEC2"},{"bufferView":35,"componentType":5123,"count":36,"max":[23],"min":[0],"type":"SCALAR"},{"bufferView":36,"componentType":5126,"count":24,"max":[0.375,1.5,1],"min":[-1.25,1.375,-0.375],"type":"VEC3"},{"bufferView":37,"componentType":5126,"count":24,"max":[1,1,1],"min":[-1,-1,-1],"type":"VEC3"},{"bufferView":38,"componentType":5126,"count":24,"max":[0.66015625,0.625],"min":[0.21484375,0],"type":"VEC2"},{"bufferView":39,"componentType":5123,"count":36,"max":[23],"min":[0],"type":"SCALAR"},{"bufferView":40,"componentType":5126,"count":152,"max":[0.5,5.875,1.125],"min":[-1.375,0.3125,-0.5],"type":"VEC3"},{"bufferView":41,"componentType":5126,"count":152,"max":[1,1,1],"min":[-1,-1,-1],"type":"VEC3"},{"bufferView":42,"componentType":5126,"count":152,"max":[0.6328125,0.75],"min":[0,0],"type":"VEC2"},{"bufferView":43,"componentType":5123,"count":228,"max":[151],"min":[0],"type":"SCALAR"},{"bufferView":44,"componentType":5126,"count":3,"max":[0.75],"min":[0],"type":"SCALAR"},{"bufferView":45,"componentType":5126,"count":3,"max":[0,0.9063078165054321,0,1],"min":[0,0,0,0.4226182699203491],"type":"VEC4"},{"bufferView":46,"componentType":5126,"count":2,"max":[0.1666666716337204],"min":[0],"type":"SCALAR"},{"bufferView":47,"componentType":5126,"count":2,"max":[0,0,0.4226182699203491,1],"min":[0,0,0,0.9063078165054321],"type":"VEC4"}],"materials":[{"pbrMetallicRoughness":{"metallicFactor":0,"roughnessFactor":1,"baseColorTexture":{"index":0}},"alphaMode":"MASK","alphaCutoff":0.05,"doubleSided":true}],"textures":[{"sampler":0,"source":0}],"samplers":[{"magFilter":9728,"minFilter":9728,"wrapS":33071,"wrapT":33071}],"images":[{"mimeType":"image/png","uri":"data:image/png;base64,"}],"meshes":[{"primitives":[{"mode":4,"attributes":{"POSITION":0,"NORMAL":1,"TEXCOORD_0":2},"indices":3,"material":0}]},{"primitives":[{"mode":4,"attributes":{"POSITION":4,"NORMAL":5,"TEXCOORD_0":6},"indices":7,"material":0}]},{"primitives":[{"mode":4,"attributes":{"POSITION":8,"NORMAL":9,"TEXCOORD_0":10},"indices":11,"material":0}]},{"primitives":[{"mode":4,"attributes":{"POSITION":12,"NORMAL":13,"TEXCOORD_0":14},"indices":15,"material":0}]},{"primitives":[{"mode":4,"attributes":{"POSITION":16,"NORMAL":17,"TEXCOORD_0":18},"indices":19,"material":0}]},{"primitives":[{"mode":4,"attributes":{"POSITION":20,"NORMAL":21,"TEXCOORD_0":22},"indices":23,"material":0}]},{"primitives":[{"mode":4,"attributes":{"POSITION":24,"NORMAL":25,"TEXCOORD_0":26},"indices":27,"material":0}]},{"primitives":[{"mode":4,"attributes":{"POSITION":28,"NORMAL":29,"TEXCOORD_0":30},"indices":31,"material":0}]},{"primitives":[{"mode":4,"attributes":{"POSITION":32,"NORMAL":33,"TEXCOORD_0":34},"indices":35,"material":0}]},{"primitives":[{"mode":4,"attributes":{"POSITION":36,"NORMAL":37,"TEXCOORD_0":38},"indices":39,"material":0}]},{"primitives":[{"mode":4,"attributes":{"POSITION":40,"NORMAL":41,"TEXCOORD_0":42},"indices":43,"material":0}]}],"animations":[{"name":"Open","samplers":[{"input":44,"output":45,"interpolation":"LINEAR"},{"input":46,"output":47,"interpolation":"LINEAR"}],"channels":[{"sampler":0,"target":{"node":9,"path":"rotation"}},{"sampler":1,"target":{"node":1,"path":"rotation"}}]}]}